<svg width="1440" height="1024" viewBox="0 0 1440 1024" fill="none" xmlns="http://www.w3.org/2000/svg">

<path id="Vector 1" d="M511.069 542.805C509.494 575.202 498.289 604.115 474.279 626.024C466.583 633.046 428.993 661.187 428.834 633.303C428.764 621.075 435.268 608.346 439.654 597.235C446.322 580.343 454.784 564.284 462.344 547.789C490.766 485.779 520.697 417.635 527.398 348.957C528.075 342.011 530.848 263.155 510.937 273.804C499.582 279.878 494.941 295.936 492.182 307.315C484.175 340.346 482.491 374.709 483.591 408.567C484.73 443.604 489.435 478.437 492.838 513.295C497.608 562.15 501.604 611.181 504.38 660.19C507.947 723.181 504.741 787.155 513.429 849.71" stroke="black" stroke-linecap="round" stroke-linejoin="round"/>
<path id="Vector 2" d="M467.394 617.171C455.288 587.809 468.273 556.289 487.592 532.444C499.046 518.307 523.442 508.859 531.004 532.05C533.692 540.292 533.941 549.654 530.021 557.495C526.812 563.912 520.548 577.297 512.774 579.267C498.148 582.972 518.901 520.589 526.479 513.492C535.749 504.811 556.885 487.661 561.498 510.147C562.731 516.16 558.713 556.303 545.169 550.937C532.552 545.938 553.799 504.028 557.891 497.425C561.707 491.27 598.81 447.814 602.156 471.981C604.064 485.756 598.686 505.32 592.057 517.558C585.319 529.998 594.082 488.438 600.91 476.047C606.211 466.427 625.828 440.742 635.929 458.734C639.993 465.974 639.295 473.984 637.109 481.687C636.632 483.368 632.23 499.238 627.929 495.983C623.104 492.331 623.064 480.279 622.879 475.325C622.052 453.162 624.506 429.873 629.896 408.37C631.515 401.909 652.426 341.184 663.078 367.253C672.375 390.007 665.248 420.757 661.505 444.11C660.575 449.911 655.403 463.603 658.881 469.489C661.33 473.633 675.504 452.959 676.325 451.914" stroke="black" stroke-linecap="round" stroke-linejoin="round"/>
<path id="Vector 3" d="M777.84 392.894C781.341 358.126 784.139 323.991 760.658 295.248C733.409 261.892 688.727 253.92 648.192 261.279C575.968 274.39 515.194 331.407 474.279 389.549C420.926 465.368 391.75 564.148 396.242 656.976C397.61 685.257 403.281 714.584 412.046 741.506C420.232 766.652 435.098 786.275 458.606 798.953C508.536 825.879 566.262 785.061 599.074 748.851C653.573 688.709 697.991 614.335 710.688 533.231C714.396 509.546 715.971 484.443 713.049 460.57C711.638 449.049 708.529 434.905 698.753 427.257C679.002 411.805 658.254 448.093 651.865 461.357C632.236 502.109 625.872 549.51 619.076 593.759C613.534 629.841 607.529 666.668 605.042 703.143C605.011 703.595 603.18 722.776 605.763 722.489C609.337 722.092 614.497 710.315 615.731 708.127C624.506 692.579 631.778 674.606 647.995 665.305C661.112 657.782 674.316 664.63 686.818 670.223C699.887 676.07 712.816 680.014 724.131 668.518C737.092 655.352 742.631 635.022 743.477 617.039C743.571 615.032 744.722 599.158 737.968 604.711C729.126 611.981 726.617 632.756 724.984 643.139C724.664 645.172 722.259 667.677 726.164 656.517C729.143 648.006 732.211 639.617 737.968 632.516C745.053 623.779 746.721 655.099 758.429 643.664C773.833 628.618 775.095 599.174 778.233 579.463C780.307 566.437 783.505 550.841 780.201 537.625C777.369 526.297 776.762 560.776 776.397 572.446C776.032 584.124 775.706 595.805 776.659 607.465C777.05 612.242 776.789 621.666 780.463 625.565C788.974 634.597 805.214 590.281 806.432 587.005C813.86 567.021 821.268 548.345 819.154 526.804C818.637 521.538 815.006 507.868 812.334 521.033C808.388 540.472 808.845 562.442 811.153 582.021C812.056 589.678 816.581 612.482 829.515 608.121C841.425 604.105 847.353 585.166 851.025 574.676" stroke="black" stroke-linecap="round" stroke-linejoin="round"/>
<path id="Vector 4" d="M757.773 592.382C785.909 575.5 810.722 554.538 835.68 533.362" stroke="black" stroke-linecap="round" stroke-linejoin="round"/>
<path id="Vector 5" d="M855.746 588.841C873.144 578.924 878.622 557.123 875.157 537.821C873.134 526.55 869.93 552.796 870.042 555.134C870.788 570.613 879.734 572.532 886.896 558.413C890.637 551.037 892.663 542.925 895.88 535.329C896.092 534.83 898.344 528.979 898.831 530.149C900.247 533.546 897.768 546.084 903.618 546.084C913.128 546.084 915.976 524.586 917.783 518.345C920.628 508.516 924.584 518.125 926.505 522.607C929.453 529.486 933.546 510.618 935.358 507.065C940.701 496.593 942.963 501.269 950.179 506.606C963.064 516.138 974.911 490.123 978.508 482.08C981.881 474.538 984.211 466.661 987.23 458.997C989.353 453.609 992.062 464.491 992.411 465.685C1000.9 494.73 1005.88 525.022 1012.74 554.478C1015.88 567.962 1019.02 581.447 1022.12 594.94C1022.49 596.551 1026.93 607.97 1024.94 609.564C1022.81 611.264 1013.36 608.545 1011.36 608.449C986.855 607.27 961.578 611.35 937.719 616.515C840.021 637.664 750.381 696.669 672.522 757.114C640.219 782.191 610.033 809.834 578.417 835.742C576.162 837.59 571.116 841.913 567.794 843.611C563.642 845.733 565.855 843.116 564.187 841.447" stroke="black" stroke-linecap="round" stroke-linejoin="round"/>
<path id="Vector 6" d="M1026.9 500.311C1029.64 483.618 1032.34 467.071 1038.18 451.127C1041.85 441.117 1047.19 431.774 1050.78 421.748C1053.35 414.551 1050.95 413.176 1045.14 417.945C1034.65 426.548 1024.49 438.493 1019.89 451.39C1013.9 468.18 1018.17 477.352 1034.51 480.834C1049.65 484.06 1048.02 496.658 1049.33 509.754" stroke="black" stroke-linecap="round" stroke-linejoin="round"/>
<path id="Vector 7" d="M1035.17 547.527C1053.02 484.205 1084.9 424.73 1112.81 365.351C1127.07 335.021 1142.83 305.405 1156.88 274.985C1158.06 272.428 1177.29 233.385 1164.88 233.802C1150.88 234.273 1133.85 257.668 1126.26 267.05C1106.24 291.777 1091.1 321.697 1084.42 352.891C1079.81 374.397 1084.47 393.777 1103.96 405.878C1117.88 414.522 1134.43 415.855 1148.62 423.322C1163.63 431.226 1178.84 447.006 1172.62 465.423C1165.41 486.766 1139.04 504.033 1121.86 516.836C1108.99 526.433 1095.02 534.44 1082.19 544.117C1077.83 547.402 1065.02 554.072 1070.32 555.396C1073.36 556.157 1081.55 551.325 1083.89 550.347C1150.09 522.652 1213.16 488.415 1280.04 462.013C1308.92 450.61 1338.35 440.447 1366.99 428.437C1375.52 424.861 1358.19 430.017 1356.24 430.667" stroke="black" stroke-linecap="round" stroke-linejoin="round"/>
<path id="Vector 9" d="M959.622 422.404C989.229 402.198 1010.02 379.347 1017.2 343.186C1019.4 332.087 1021.79 314.421 1013.26 305.019C1003.94 294.735 984.437 304.677 975.754 310.266C954.72 323.804 940.062 346.816 929.718 369.024C923.894 381.528 910.335 410.325 920.406 424.503C929.503 437.308 956.031 422.471 964.868 418.207C981.271 410.293 996.279 400.313 1011.56 390.533" stroke="black" stroke-linecap="round" stroke-linejoin="round"/>
<path id="Vector 10" d="M738.886 823.741C816.412 743.812 918.389 693.901 1018.12 648.255C1074.12 622.624 1130.43 596.762 1189.14 577.889C1209.45 571.363 1229.77 564.895 1250 558.151" stroke="black" stroke-linecap="round" stroke-linejoin="round"/>

</svg>
